<?xml version="1.0" encoding="UTF-8" standalone="no"?>
<svg width="547px" height="63px" viewBox="0 0 547 63" version="1.1" xmlns="http://www.w3.org/2000/svg" xmlns:xlink="http://www.w3.org/1999/xlink" xmlns:sketch="http://www.bohemiancoding.com/sketch/ns">
    <!-- Generator: Sketch 3.4.2 (15857) - http://www.bohemiancoding.com/sketch -->
    <title>mozilla Participatio</title>
    <desc>Created with Sketch.</desc>
    <defs></defs>
    <g id="Page-1" stroke="none" stroke-width="1" fill="none" fill-rule="evenodd" sketch:type="MSPage">
        <g id="mozilla-participation-wordmark" sketch:type="MSArtboardGroup" transform="translate(-3.000000, -2.000000)" fill="#4E4F53">
            <path d="M4.352,27.152 L4.352,50 L12.736,50 L12.736,26.128 C14.592,24.464 16.768,23.632 18.368,23.632 C20.736,23.632 21.312,24.592 21.312,28.688 L21.312,50 L29.44,50 L29.44,26.448 C31.296,24.784 33.536,23.696 35.136,23.696 C37.376,23.696 37.824,24.464 37.824,28.368 L37.824,50 L46.144,50 L46.144,26.704 C46.144,22.224 45.568,20.304 43.712,18.704 C42.24,17.424 39.808,16.656 37.248,16.656 C33.664,16.656 30.976,17.872 27.968,20.944 C27.328,20.048 27.136,19.792 26.688,19.344 C24.96,17.552 22.72,16.656 20.032,16.656 C17.024,16.656 14.272,17.808 12.032,19.984 C11.712,18.32 11.456,17.552 10.88,16.656 L3.136,18.768 C4.032,20.368 4.352,22.416 4.352,27.152 L4.352,27.152 Z M52.032,33.744 C52.032,44.048 57.856,50.704 66.752,50.704 C71.808,50.704 75.072,48.976 77.568,46.16 C80.384,42.96 81.664,39.12 81.664,33.488 C81.664,28.176 80.512,24.592 77.888,21.52 C75.072,18.192 71.424,16.592 66.752,16.592 C57.92,16.592 52.032,23.44 52.032,33.744 L52.032,33.744 Z M70.592,24.656 C71.744,26.128 72.32,29.008 72.32,33.424 C72.32,41.168 70.72,44.496 67.008,44.496 C65.344,44.496 63.424,43.6 62.656,41.808 C61.952,40.144 61.568,37.328 61.568,33.552 C61.568,30.288 61.888,27.984 62.464,26.256 C63.168,24.208 64.832,22.928 66.88,22.928 C68.416,22.928 69.76,23.568 70.592,24.656 L70.592,24.656 Z M85.248,23.44 L99.392,23.44 L83.968,44.688 L83.968,50 L108.096,50 L110.144,44.048 L95.104,44.048 L109.568,23.312 L109.568,17.424 L85.248,17.424 L85.248,23.44 Z M114.496,50 L123.072,50 L123.072,16.464 L114.496,17.808 L114.496,50 Z M113.536,8.208 C113.536,11.152 115.904,13.52 118.784,13.52 C121.728,13.52 124.096,11.152 124.096,8.208 C124.096,5.264 121.792,2.896 118.912,2.896 C115.968,2.896 113.536,5.264 113.536,8.208 L113.536,8.208 Z M130.304,4.624 C130.624,7.568 130.752,10.192 130.752,14.48 L130.752,38.928 C130.752,43.6 130.88,44.624 131.52,46.288 C132.544,49.04 135.488,50.768 139.136,50.768 C140.992,50.768 142.784,50.448 144.256,49.872 L142.784,44.752 C142.336,44.88 142.144,44.88 141.824,44.88 C141.12,44.88 140.416,44.56 140.096,43.984 C139.584,43.088 139.52,42.32 139.52,36.688 L139.52,11.152 C139.52,6.544 139.392,4.432 139.072,2.64 L130.304,4.624 Z M147.52,4.624 C147.84,7.568 147.968,10.192 147.968,14.48 L147.968,38.928 C147.968,43.6 148.096,44.624 148.736,46.288 C149.76,49.04 152.704,50.768 156.352,50.768 C158.208,50.768 160,50.448 161.472,49.872 L160,44.752 C159.552,44.88 159.36,44.88 159.04,44.88 C158.336,44.88 157.632,44.56 157.312,43.984 C156.8,43.088 156.736,42.32 156.736,36.688 L156.736,11.152 C156.736,6.544 156.608,4.432 156.288,2.64 L147.52,4.624 Z M167.616,27.28 C171.136,24.912 174.336,23.568 177.088,23.568 C180.224,23.568 180.928,24.784 180.928,28.432 L180.928,29.776 C180.032,29.712 179.648,29.712 179.008,29.712 C168.576,29.712 163.264,33.296 163.264,40.976 C163.264,47.504 167.232,51.216 174.528,51.216 C177.216,51.216 179.52,50.576 181.12,49.424 C181.76,48.976 181.888,48.848 183.104,47.696 C183.936,49.36 185.728,50.832 187.712,51.664 L192.256,46.416 C189.76,44.56 189.184,43.216 189.184,39.696 L189.184,39.12 L189.376,28.112 C189.376,24.592 189.248,23.568 188.8,22.224 C187.52,18.576 183.744,16.528 178.24,16.528 C175.232,16.528 172.48,17.104 169.28,18.448 C166.976,19.344 166.08,19.792 163.968,21.136 L167.616,27.28 Z M180.672,42.704 C179.392,44.112 177.792,44.944 176.192,44.944 C174.016,44.944 172.416,43.216 172.416,40.656 C172.416,36.752 174.464,35.664 180.416,35.664 L180.8,35.664 L180.672,42.704 Z M218.752,50 L227.712,50 L227.712,33.616 L232.64,33.616 C237.568,33.616 239.488,33.104 241.536,32.144 C246.4,29.84 249.216,24.976 249.216,19.088 C249.216,13.968 246.976,9.872 242.816,7.568 C240.32,6.16 238.016,5.392 230.464,5.392 L218.752,5.392 L218.752,50 Z M233.408,12.624 C237.184,12.624 239.424,15.12 239.424,19.28 C239.424,21.392 239.104,22.8 238.336,24.016 C237.12,25.872 236.032,26.32 232.384,26.32 L227.712,26.32 L227.712,12.624 L233.408,12.624 Z M257.472,27.28 C260.992,24.912 264.192,23.568 266.944,23.568 C270.08,23.568 270.784,24.784 270.784,28.432 L270.784,29.776 C269.888,29.712 269.504,29.712 268.864,29.712 C258.432,29.712 253.12,33.296 253.12,40.976 C253.12,47.504 257.088,51.216 264.384,51.216 C267.072,51.216 269.376,50.576 270.976,49.424 C271.616,48.976 271.744,48.848 272.96,47.696 C273.792,49.36 275.584,50.832 277.568,51.664 L282.112,46.416 C279.616,44.56 279.04,43.216 279.04,39.696 L279.04,39.12 L279.232,28.112 C279.232,24.592 279.104,23.568 278.656,22.224 C277.376,18.576 273.6,16.528 268.096,16.528 C265.088,16.528 262.336,17.104 259.136,18.448 C256.832,19.344 255.936,19.792 253.824,21.136 L257.472,27.28 Z M270.528,42.704 C269.248,44.112 267.648,44.944 266.048,44.944 C263.872,44.944 262.272,43.216 262.272,40.656 C262.272,36.752 264.32,35.664 270.272,35.664 L270.656,35.664 L270.528,42.704 Z M287.424,28.112 L287.424,50 L296,50 L296,26.832 C297.6,24.976 299.328,24.08 301.248,24.08 C302.208,24.08 302.912,24.272 303.744,24.72 L306.112,17.168 C304.768,16.592 304.192,16.464 302.912,16.464 C301.952,16.464 300.8,16.656 300.096,16.976 C298.496,17.744 296.448,19.472 295.232,21.136 C295.104,19.28 294.656,17.808 293.888,16.464 L286.208,18.512 C286.912,20.368 287.424,23.696 287.424,28.112 L287.424,28.112 Z M317.504,17.168 C317.504,13.84 317.696,10.32 318.016,7.312 L309.312,9.488 C308.992,11.92 308.992,14.096 308.992,17.296 L305.728,17.296 L305.728,22.864 L308.992,22.864 L308.992,40.912 C308.992,43.92 309.056,44.56 309.568,45.968 C310.528,48.848 314.048,50.768 318.4,50.768 C320.64,50.768 322.88,50.32 325.376,49.296 L324.288,44.176 C322.752,44.624 321.984,44.816 321.216,44.816 C318.272,44.816 317.504,43.728 317.504,39.568 L317.504,22.864 L323.008,22.864 L325.184,17.168 L317.504,17.168 Z M327.808,50 L336.384,50 L336.384,16.464 L327.808,17.808 L327.808,50 Z M326.848,8.208 C326.848,11.152 329.216,13.52 332.096,13.52 C335.04,13.52 337.408,11.152 337.408,8.208 C337.408,5.264 335.104,2.896 332.224,2.896 C329.28,2.896 326.848,5.264 326.848,8.208 L326.848,8.208 Z M363.584,17.744 C361.728,16.848 359.424,16.272 357.248,16.272 C354.496,16.272 351.296,17.232 349.12,18.704 C345.28,21.328 342.4,26.32 342.4,33.872 C342.4,44.496 347.648,50.768 356.672,50.768 C359.808,50.768 362.368,50.064 364.672,48.72 C365.824,48.016 366.4,47.568 367.68,46.288 L363.776,41.104 L363.264,41.552 C361.152,43.408 359.36,44.24 357.376,44.24 C355.904,44.24 354.432,43.536 353.536,42.384 C352.384,40.976 351.872,38.416 351.872,34.128 C351.872,26.448 353.6,23.12 357.44,23.12 C359.04,23.12 360.896,24.08 362.624,25.68 L366.784,20.048 C365.376,18.832 364.8,18.384 363.584,17.744 L363.584,17.744 Z M371.264,50 L379.84,50 L379.84,16.464 L371.264,17.808 L371.264,50 Z M370.304,8.208 C370.304,11.152 372.672,13.52 375.552,13.52 C378.496,13.52 380.864,11.152 380.864,8.208 C380.864,5.264 378.56,2.896 375.68,2.896 C372.736,2.896 370.304,5.264 370.304,8.208 L370.304,8.208 Z M388.032,26.192 L388.032,64.08 L396.288,61.904 L396.288,51.664 C396.288,51.664 396.288,49.744 396.16,48.976 C398.016,50.064 400.448,50.704 403.008,50.704 C406.592,50.704 409.536,49.36 411.776,46.992 C415.232,43.408 416.32,39.76 416.32,32.72 C416.32,25.168 413.76,20.944 410.24,18.576 C408.448,17.36 406.08,16.592 403.776,16.592 C400.448,16.592 397.184,17.872 395.712,19.664 C395.648,18.64 395.456,17.744 395.136,16.592 L387.52,17.936 C387.968,20.688 388.032,21.904 388.032,26.192 L388.032,26.192 Z M396.352,26.064 C397.888,24.464 399.936,23.568 402.048,23.568 C404.16,23.568 405.504,24.528 406.144,26.32 C406.72,27.92 406.976,30.416 406.976,33.552 C406.976,41.04 405.312,43.92 401.088,43.92 C399.36,43.92 397.504,42.96 396.352,42 L396.352,26.064 Z M425.408,27.28 C428.928,24.912 432.128,23.568 434.88,23.568 C438.016,23.568 438.72,24.784 438.72,28.432 L438.72,29.776 C437.824,29.712 437.44,29.712 436.8,29.712 C426.368,29.712 421.056,33.296 421.056,40.976 C421.056,47.504 425.024,51.216 432.32,51.216 C435.008,51.216 437.312,50.576 438.912,49.424 C439.552,48.976 439.68,48.848 440.896,47.696 C441.728,49.36 443.52,50.832 445.504,51.664 L450.048,46.416 C447.552,44.56 446.976,43.216 446.976,39.696 L446.976,39.12 L447.168,28.112 C447.168,24.592 447.04,23.568 446.592,22.224 C445.312,18.576 441.536,16.528 436.032,16.528 C433.024,16.528 430.272,17.104 427.072,18.448 C424.768,19.344 423.872,19.792 421.76,21.136 L425.408,27.28 Z M438.464,42.704 C437.184,44.112 435.584,44.944 433.984,44.944 C431.808,44.944 430.208,43.216 430.208,40.656 C430.208,36.752 432.256,35.664 438.208,35.664 L438.592,35.664 L438.464,42.704 Z M463.808,17.168 C463.808,13.84 464,10.32 464.32,7.312 L455.616,9.488 C455.296,11.92 455.296,14.096 455.296,17.296 L452.032,17.296 L452.032,22.864 L455.296,22.864 L455.296,40.912 C455.296,43.92 455.36,44.56 455.872,45.968 C456.832,48.848 460.352,50.768 464.704,50.768 C466.944,50.768 469.184,50.32 471.68,49.296 L470.592,44.176 C469.056,44.624 468.288,44.816 467.52,44.816 C464.576,44.816 463.808,43.728 463.808,39.568 L463.808,22.864 L469.312,22.864 L471.488,17.168 L463.808,17.168 Z M474.112,50 L482.688,50 L482.688,16.464 L474.112,17.808 L474.112,50 Z M473.152,8.208 C473.152,11.152 475.52,13.52 478.4,13.52 C481.344,13.52 483.712,11.152 483.712,8.208 C483.712,5.264 481.408,2.896 478.528,2.896 C475.584,2.896 473.152,5.264 473.152,8.208 L473.152,8.208 Z M488.192,33.744 C488.192,44.048 494.016,50.704 502.912,50.704 C507.968,50.704 511.232,48.976 513.728,46.16 C516.544,42.96 517.824,39.12 517.824,33.488 C517.824,28.176 516.672,24.592 514.048,21.52 C511.232,18.192 507.584,16.592 502.912,16.592 C494.08,16.592 488.192,23.44 488.192,33.744 L488.192,33.744 Z M506.752,24.656 C507.904,26.128 508.48,29.008 508.48,33.424 C508.48,41.168 506.88,44.496 503.168,44.496 C501.504,44.496 499.584,43.6 498.816,41.808 C498.112,40.144 497.728,37.328 497.728,33.552 C497.728,30.288 498.048,27.984 498.624,26.256 C499.328,24.208 500.992,22.928 503.04,22.928 C504.576,22.928 505.92,23.568 506.752,24.656 L506.752,24.656 Z M523.776,26.256 L523.776,50 L532.352,50 L532.352,26.832 C534.336,25.04 536.576,23.888 538.304,23.888 C540.544,23.888 541.184,24.976 541.184,28.688 L541.184,50 L549.632,50 L549.632,26.064 C549.632,24.016 549.44,22.608 548.992,21.392 C547.968,18.576 544.768,16.656 541.12,16.656 C539.2,16.656 536.96,17.168 535.232,18.064 C533.824,18.832 533.44,19.088 531.456,20.496 C531.456,19.152 531.008,17.744 530.24,16.4 L522.624,18.576 C523.392,20.752 523.776,23.44 523.776,26.256 L523.776,26.256 Z" id="mozilla-Participatio" sketch:type="MSShapeGroup"></path>
        </g>
    </g>
</svg>